<svg version="1.1" id="Layer_1" xmlns="http://www.w3.org/2000/svg" xmlns:xlink="http://www.w3.org/1999/xlink" x="0px" y="0px"
	 width="100%" viewBox="0 0 108 111" enable-background="new 0 0 108 111" xml:space="preserve">
<path fill="#FF6D18" opacity="1.000000" stroke="none" 
	d="
M57.000000,112.000000 
	C38.000000,112.000000 19.500000,112.000000 1.000000,112.000000 
	C1.000000,75.000000 1.000000,38.000000 1.000000,1.000000 
	C37.000000,1.000000 73.000000,1.000000 109.000000,1.000000 
	C109.000000,38.000000 109.000000,75.000000 109.000000,112.000000 
	C91.833336,112.000000 74.666664,112.000000 57.000000,112.000000 
M35.912689,75.596321 
	C30.669151,51.797791 25.425615,27.999258 20.189392,4.233910 
	C14.209902,4.233910 8.767277,4.233910 3.028618,4.233910 
	C10.175734,39.233093 17.264799,73.947998 24.367397,108.729187 
	C30.615038,108.729187 36.387672,108.729187 42.813927,108.729187 
	C40.486557,97.753517 38.226658,87.096031 35.912689,75.596321 
M48.510281,29.930872 
	C46.786438,37.575146 41.812256,44.532921 43.832397,52.972122 
	C45.682240,60.699886 47.368050,68.466919 49.429241,77.552727 
	C51.025517,72.543831 52.172531,68.944656 53.715919,64.101707 
	C57.497524,79.752968 60.990345,94.209015 64.498787,108.729729 
	C70.812065,108.729729 76.756035,108.729729 83.217430,108.729729 
	C74.405937,74.203003 65.675385,39.993427 56.944828,5.783854 
	C56.545525,5.802685 56.146225,5.821516 55.746922,5.840347 
	C53.427311,13.619345 51.107700,21.398342 48.510281,29.930872 
M86.234276,21.807009 
	C85.808937,23.410940 85.396202,25.018339 84.956085,26.618204 
	C83.018227,33.662437 79.065216,40.860989 79.599274,47.710716 
	C80.403503,58.025696 84.343277,68.096214 86.950134,78.270645 
	C87.244919,78.228859 87.539703,78.187073 87.834480,78.145287 
	C94.367783,53.639160 100.901085,29.133039 107.540504,4.228849 
	C101.682304,4.228849 96.570442,4.228849 91.349815,4.228849 
	C89.708511,9.898513 88.096603,15.466617 86.234276,21.807009 
z"/>
<path fill="#FFFCFB" opacity="1.000000" stroke="none" 
	d="
M35.939724,76.017433 
	C38.226658,87.096031 40.486557,97.753517 42.813927,108.729187 
	C36.387672,108.729187 30.615038,108.729187 24.367397,108.729187 
	C17.264799,73.947998 10.175734,39.233093 3.028618,4.233910 
	C8.767277,4.233910 14.209902,4.233910 20.189392,4.233910 
	C25.425615,27.999258 30.669151,51.797791 35.939724,76.017433 
z"/>
<path fill="#FFFCFA" opacity="1.000000" stroke="none" 
	d="
M48.649185,29.554106 
	C51.107700,21.398342 53.427311,13.619345 55.746922,5.840347 
	C56.146225,5.821516 56.545525,5.802685 56.944828,5.783854 
	C65.675385,39.993427 74.405937,74.203003 83.217430,108.729729 
	C76.756035,108.729729 70.812065,108.729729 64.498787,108.729729 
	C60.990345,94.209015 57.497524,79.752968 53.715919,64.101707 
	C52.172531,68.944656 51.025517,72.543831 49.429241,77.552727 
	C47.368050,68.466919 45.682240,60.699886 43.832397,52.972122 
	C41.812256,44.532921 46.786438,37.575146 48.649185,29.554106 
z"/>
<path fill="#FFFCFA" opacity="1.000000" stroke="none" 
	d="
M86.359482,21.420864 
	C88.096603,15.466617 89.708511,9.898513 91.349815,4.228849 
	C96.570442,4.228849 101.682304,4.228849 107.540504,4.228849 
	C100.901085,29.133039 94.367783,53.639160 87.834480,78.145287 
	C87.539703,78.187073 87.244919,78.228859 86.950134,78.270645 
	C84.343277,68.096214 80.403503,58.025696 79.599274,47.710716 
	C79.065216,40.860989 83.018227,33.662437 84.956085,26.618204 
	C85.396202,25.018339 85.808937,23.410940 86.359482,21.420864 
z"/>
</svg>